<mxfile host="app.diagrams.net" agent="Mozilla/5.0 (Windows NT 10.0; Win64; x64) AppleWebKit/537.36 (KHTML, like Gecko) Chrome/133.0.0.0 Safari/537.36 Edg/133.0.0.0" version="26.0.16">
  <diagram id="kIK5vjcx84ck91AsSwDo" name="第 1 页">
    <mxGraphModel dx="1000" dy="601" grid="0" gridSize="10" guides="1" tooltips="1" connect="1" arrows="1" fold="1" page="1" pageScale="1" pageWidth="827" pageHeight="1169" math="0" shadow="0">
      <root>
        <mxCell id="0" />
        <mxCell id="1" parent="0" />
        <mxCell id="lHc2SOHwWsHktOzKszJV-3" value="" style="edgeStyle=orthogonalEdgeStyle;rounded=0;orthogonalLoop=1;jettySize=auto;html=1;" edge="1" parent="1" source="lHc2SOHwWsHktOzKszJV-1" target="lHc2SOHwWsHktOzKszJV-2">
          <mxGeometry relative="1" as="geometry" />
        </mxCell>
        <mxCell id="lHc2SOHwWsHktOzKszJV-8" value="if TR == 1" style="edgeLabel;html=1;align=center;verticalAlign=middle;resizable=0;points=[];" vertex="1" connectable="0" parent="lHc2SOHwWsHktOzKszJV-3">
          <mxGeometry x="0.1" relative="1" as="geometry">
            <mxPoint x="-4" as="offset" />
          </mxGeometry>
        </mxCell>
        <mxCell id="lHc2SOHwWsHktOzKszJV-1" value="idle" style="rounded=1;whiteSpace=wrap;html=1;" vertex="1" parent="1">
          <mxGeometry x="80" y="80" width="100" height="40" as="geometry" />
        </mxCell>
        <mxCell id="lHc2SOHwWsHktOzKszJV-5" value="" style="edgeStyle=orthogonalEdgeStyle;rounded=0;orthogonalLoop=1;jettySize=auto;html=1;" edge="1" parent="1" source="lHc2SOHwWsHktOzKszJV-2" target="lHc2SOHwWsHktOzKszJV-4">
          <mxGeometry relative="1" as="geometry" />
        </mxCell>
        <mxCell id="lHc2SOHwWsHktOzKszJV-10" value="set RDY = 0" style="edgeLabel;html=1;align=center;verticalAlign=middle;resizable=0;points=[];" vertex="1" connectable="0" parent="lHc2SOHwWsHktOzKszJV-5">
          <mxGeometry x="0.05" y="-4" relative="1" as="geometry">
            <mxPoint x="-5" y="-4" as="offset" />
          </mxGeometry>
        </mxCell>
        <mxCell id="lHc2SOHwWsHktOzKszJV-2" value="respond" style="rounded=1;whiteSpace=wrap;html=1;" vertex="1" parent="1">
          <mxGeometry x="260" y="80" width="100" height="40" as="geometry" />
        </mxCell>
        <mxCell id="lHc2SOHwWsHktOzKszJV-7" value="" style="edgeStyle=orthogonalEdgeStyle;rounded=0;orthogonalLoop=1;jettySize=auto;html=1;" edge="1" parent="1" source="lHc2SOHwWsHktOzKszJV-4" target="lHc2SOHwWsHktOzKszJV-6">
          <mxGeometry relative="1" as="geometry" />
        </mxCell>
        <mxCell id="lHc2SOHwWsHktOzKszJV-11" value="set buffer = PD" style="edgeLabel;html=1;align=center;verticalAlign=middle;resizable=0;points=[];" vertex="1" connectable="0" parent="lHc2SOHwWsHktOzKszJV-7">
          <mxGeometry x="-0.0833" relative="1" as="geometry">
            <mxPoint as="offset" />
          </mxGeometry>
        </mxCell>
        <mxCell id="lHc2SOHwWsHktOzKszJV-4" value="receive" style="rounded=1;whiteSpace=wrap;html=1;" vertex="1" parent="1">
          <mxGeometry x="440" y="80" width="100" height="40" as="geometry" />
        </mxCell>
        <mxCell id="lHc2SOHwWsHktOzKszJV-12" style="edgeStyle=orthogonalEdgeStyle;rounded=0;orthogonalLoop=1;jettySize=auto;html=1;entryX=0.5;entryY=0;entryDx=0;entryDy=0;" edge="1" parent="1" source="lHc2SOHwWsHktOzKszJV-6" target="lHc2SOHwWsHktOzKszJV-1">
          <mxGeometry relative="1" as="geometry">
            <Array as="points">
              <mxPoint x="700" y="60" />
              <mxPoint x="130" y="60" />
            </Array>
          </mxGeometry>
        </mxCell>
        <mxCell id="lHc2SOHwWsHktOzKszJV-13" value="set print_flag = 1" style="edgeLabel;html=1;align=center;verticalAlign=middle;resizable=0;points=[];" vertex="1" connectable="0" parent="lHc2SOHwWsHktOzKszJV-12">
          <mxGeometry x="-0.0032" relative="1" as="geometry">
            <mxPoint as="offset" />
          </mxGeometry>
        </mxCell>
        <mxCell id="lHc2SOHwWsHktOzKszJV-6" value="print" style="rounded=1;whiteSpace=wrap;html=1;" vertex="1" parent="1">
          <mxGeometry x="650" y="80" width="100" height="40" as="geometry" />
        </mxCell>
        <mxCell id="lHc2SOHwWsHktOzKszJV-14" style="edgeStyle=orthogonalEdgeStyle;rounded=0;orthogonalLoop=1;jettySize=auto;html=1;" edge="1" parent="1">
          <mxGeometry relative="1" as="geometry">
            <mxPoint x="90" y="120" as="sourcePoint" />
            <mxPoint x="170" y="120" as="targetPoint" />
            <Array as="points">
              <mxPoint x="90" y="120" />
              <mxPoint x="90" y="140" />
              <mxPoint x="170" y="140" />
              <mxPoint x="170" y="120" />
            </Array>
          </mxGeometry>
        </mxCell>
        <mxCell id="lHc2SOHwWsHktOzKszJV-15" value="if TR == 0" style="edgeLabel;html=1;align=center;verticalAlign=middle;resizable=0;points=[];" vertex="1" connectable="0" parent="lHc2SOHwWsHktOzKszJV-14">
          <mxGeometry x="0.0197" relative="1" as="geometry">
            <mxPoint as="offset" />
          </mxGeometry>
        </mxCell>
      </root>
    </mxGraphModel>
  </diagram>
</mxfile>
